<svg xmlns="http://www.w3.org/2000/svg" width="2394" height="2394" viewBox="0 0 2394 2394">
  <defs>
    <style>
      .cls-1, .cls-3 {
        fill: #1879bf;
      }

      .cls-2 {
        fill: #fff;
      }

      .cls-2, .cls-3 {
        fill-rule: evenodd;
      }
    </style>
  </defs>
  <ellipse id="Elipse_1" data-name="Elipse 1" class="cls-1" cx="1200" cy="1193.5" rx="1188" ry="1188.5"/>
  <path id="Retângulo_1" data-name="Retângulo 1" class="cls-2" d="M596.912,1555.86H1815.37v158H596.912v-158Z"/>
  <path id="HOST_MEDIA_GROUP" data-name="HOST MEDIA GROUP" class="cls-3" d="M648.692,1676.43h21.923v-35.08H694.57v35.08h22.02v-86.71H694.57v30.34H670.615v-30.34H648.692v86.71Zm84.594-17.98q4.887,10.11,12.752,14.79,7.863,4.665,19.866,4.67,11.806,0,19.721-5.41a34.2,34.2,0,0,0,12.1-15.15q4.185-9.72,4.186-24.93,0-20.94-9.582-32.56t-27.294-11.62q-17.277,0-26.956,11.83t-9.679,33.06Q728.4,1648.34,733.286,1658.45Zm21.051-44.19a12.415,12.415,0,0,1,10.647-5.73,12.777,12.777,0,0,1,10.962,5.65q4.039,5.64,4.041,17.89,0,14.55-3.872,20.17a13.3,13.3,0,0,1-21.8-.12q-3.991-5.745-3.992-18.87Q750.321,1620.005,754.337,1614.26Zm63.446,55.13q6.969,8.52,25.068,8.52,10.308,0,17.084-3.64a25.4,25.4,0,0,0,10.55-10.68,31.989,31.989,0,0,0,3.774-15.37,28.615,28.615,0,0,0-2.831-12.84,23.721,23.721,0,0,0-9.05-9.61q-6.219-3.87-20.591-7.66c-3.872-.99-6.324-2.05-7.356-3.2a5.216,5.216,0,0,1-1.6-3.72,6.644,6.644,0,0,1,1.935-4.82q1.935-1.98,5.759-1.98a9.77,9.77,0,0,1,7.284,2.66q2.637,2.655,3.46,8.52l20.664-1.48q-1.355-13.485-8.493-19.67t-20.737-6.18q-11.082,0-17.446,3.4a22.508,22.508,0,0,0-9.534,9.34,26.5,26.5,0,0,0-3.17,12.63q0,10.185,6.195,16.74,6.145,6.57,20.567,10.53,8.808,2.37,11.228,5.03a8.71,8.71,0,0,1,2.42,6.03,8.8,8.8,0,0,1-2.541,6.24c-1.694,1.8-4.106,2.69-7.235,2.69a10.843,10.843,0,0,1-9.679-5.26q-2.082-3.255-2.758-9.46l-20.859,1.59Q810.814,1660.88,817.783,1669.39Zm62.526-58.26h22.358v65.3H924.59v-65.3h22.358v-21.41H880.309v21.41Zm109.372,65.3h17.949V1610.3l13.81,66.13h16.25l13.84-66.13v66.13h17.95v-86.71h-28.81l-11.04,52.76-11.12-52.76H989.681v86.71Zm93.739,0h59.82v-19.64h-37.85V1639.7h34.12v-17.69h-34.12v-13.78h36.78v-18.51h-58.75v86.71Zm71.92,0h32.57a42.262,42.262,0,0,0,13.06-2.37,22.716,22.716,0,0,0,9.87-6.89,36.809,36.809,0,0,0,7.19-12.83q2.6-7.665,2.59-21.56a78.145,78.145,0,0,0-1.74-16.8,41.834,41.834,0,0,0-5.62-13.9,26.6,26.6,0,0,0-9.8-9.17q-5.925-3.2-15.55-3.19h-32.57v86.71Zm27.39-67.08q8.505,0,12.19,5.09t3.68,18.87q0,10.41-1.65,15.05c-1.09,3.1-2.61,5.27-4.54,6.51s-5.2,1.86-9.78,1.86h-5.37v-47.38h5.47Zm50.28,67.08h21.97v-86.71h-21.97v86.71Zm84.86,0h22.96l-26.66-86.71h-23.91l-26.67,86.71h22.39l3.46-14.31h24.89Zm-23.67-33.06,7.75-31.18,7.83,31.18H1294.2Zm136.98,1.65v8.16a35.526,35.526,0,0,1-7.64,4.44,19.14,19.14,0,0,1-7.02,1.3,14.012,14.012,0,0,1-12.07-6.03q-4.335-6.03-4.33-20.11,0-13.26,4.28-19.37a13.325,13.325,0,0,1,11.49-6.13,11.978,11.978,0,0,1,7.96,2.61,14.181,14.181,0,0,1,4.43,7.51l21.15-4.61a39.4,39.4,0,0,0-5.78-13.88,23.4,23.4,0,0,0-9.68-8.07q-5.835-2.6-17.59-2.6-12.2,0-19.41,4.2a34.554,34.554,0,0,0-14.03,15.94q-4.8,10.5-4.8,24.69a61.19,61.19,0,0,0,4.38,23.9q4.38,10.41,12.34,15.67t20.6,5.27a48.56,48.56,0,0,0,17.73-2.93q7.485-2.925,17.21-11.03v-36.97h-33.88v18.04h14.66Zm54.55,31.41v-35.19h1.93a8.078,8.078,0,0,1,5.37,2.01c1.16,1.02,2.49,3.25,3.97,6.68l11.72,26.5h24.77l-10.62-25.13a34.115,34.115,0,0,0-3.07-5.38,25.751,25.751,0,0,0-3.5-4.56,20.441,20.441,0,0,0-5.71-3.2,23.776,23.776,0,0,0,7.7-3.43,22.327,22.327,0,0,0,6.92-8.49,28.451,28.451,0,0,0,2.52-12.45,28,28,0,0,0-3.29-14.05,17.276,17.276,0,0,0-8.66-7.89q-5.37-2.13-15.54-2.13h-36.53v86.71h22.02Zm0-69.2h9.63c4,0,6.72.74,8.17,2.24s2.18,3.65,2.18,6.45a9.242,9.242,0,0,1-1.38,5.03,5.792,5.792,0,0,1-3.55,2.72,27.5,27.5,0,0,1-5.81,1.18h-9.24v-17.62Zm55.21,51.22q4.89,10.11,12.76,14.79,7.86,4.665,19.86,4.67,11.805,0,19.72-5.41a34.158,34.158,0,0,0,12.1-15.15q4.185-9.72,4.19-24.93,0-20.94-9.58-32.56t-27.3-11.62q-17.28,0-26.96,11.83t-9.67,33.06Q1536.06,1648.34,1540.94,1658.45Zm21.06-44.19a12.393,12.393,0,0,1,10.64-5.73,12.761,12.761,0,0,1,10.96,5.65q4.05,5.64,4.04,17.89,0,14.55-3.87,20.17a13.3,13.3,0,0,1-21.8-.12q-3.99-5.745-3.99-18.87Q1557.98,1620.005,1562,1614.26Zm105.54,28.35q0,7.215-3.21,11.14a11.993,11.993,0,0,1-17.81-.06q-3.225-3.99-3.22-11.08v-52.89h-21.88v51.66a62.13,62.13,0,0,0,2.04,14.66,29.416,29.416,0,0,0,4.67,9.99,27.306,27.306,0,0,0,7.52,7.47,25.54,25.54,0,0,0,10.24,3.52,79.443,79.443,0,0,0,11.3.89,36.964,36.964,0,0,0,15.34-2.9,24.816,24.816,0,0,0,8.78-7.18,33.052,33.052,0,0,0,6.15-11.94,52.227,52.227,0,0,0,1.96-14.51v-51.66h-21.88v52.89Zm36.3,33.82h22.02v-32.18h12q13.26,0,19.72-7.39t6.46-20.53q0-12.765-5.93-19.69t-17.83-6.92h-36.44v86.71Zm22.02-69.09h6.24q6.15,0,8.38,2.84a10.907,10.907,0,0,1,2.22,6.92,9.569,9.569,0,0,1-2.56,6.89q-2.565,2.7-8.91,2.7h-5.37v-19.35Z"/>
  <path id="hostco." class="cls-2" d="M109.051,1435.25H220.279V1264.99q0-48.4,12.527-67.09,12.526-18.7,32.682-18.7,18.24,0,28.321,13.86t10.077,47.23v194.96H415.861v-225.5q0-69.81-26.087-103.56t-71.43-33.74q-30.6,0-53,12.4t-45.069,41.2v-180.5H109.051V1435.25Zm412.679-35.57q43.215,43.41,113.234,43.4,78.5,0,122.945-52.25t44.445-134.07q0-72.78-35.832-122.54-44.579-61.77-131.832-61.77-76.308,0-121.165,52.59t-44.854,133.73q0,87.15,53.059,140.91h0Zm74.387-210.7q15.843-22.845,40.165-22.85,22.947,0,38.521,22.52t15.577,68.55q0,49.38-15.437,71.72t-39.483,22.35q-23.769,0-39.477-22.69t-15.711-70.05Q580.272,1211.835,596.117,1188.98ZM879.46,1415.69q33.768,27.765,113.328,27.77,56.313,0,88.992-17.21t47.85-46.28q15.165-29.07,15.17-59.82a111.434,111.434,0,0,0-14.35-55.8q-14.355-25.395-41.42-39.1t-82.56-21.38q-36.638-5.325-47.5-12.02-10.864-6.675-10.865-19.69a26.364,26.364,0,0,1,8.6-19.86q8.6-8.19,27.44-8.19,18.563,0,31.675,10.72,9.555,8.04,13.65,25.11l105.63-12.69q-10.95-34.71-27.49-55.07a98.626,98.626,0,0,0-41.3-30.05q-24.765-9.675-76.724-9.68-49.233,0-78.5,12.51t-45.95,37.88q-16.69,25.35-16.685,60.39,0,32.04,15.443,57.06,15.448,25.035,38,35.54t80.517,22.87q38.824,8.34,47.883,14.02,12.615,8.01,12.62,22.7a28.078,28.078,0,0,1-9.58,21.7q-12.315,11.685-34.739,11.69-20.523,0-32.829-10.36t-19.152-34.43l-110.481,12.69Q845.7,1387.9,879.46,1415.69Zm341.21-400.44v65.04h-41.06v99.65h41.06v124.74q0,59.37,9.43,85.88t29.13,39.52q19.68,13.005,61.25,13,35.82,0,77.11-11.03l-8.2-93.92q-22.14,8.655-34.44,8.66-13.665,0-19.13-11.32-3.54-7.335-3.55-29.98V1179.94h61.21v-99.65h-61.21V945.545Zm419.96,323.39q-14.895,13.755-36.73,13.75-26.235,0-43.15-22.7-16.935-22.71-16.93-66.44,0-49.08,17.03-73.28t44.57-24.21q21.8,0,34.75,11.47t17.86,34.07l104.88-16.8q-15.03-59.85-52.34-90.95t-108.39-31.1q-50.85,0-83.38,16.36-20.5,10.365-39.91,31.56a164.924,164.924,0,0,0-30.62,47.92q-15.3,36.4-15.31,91.17,0,52.44,12.57,84.15a172.561,172.561,0,0,0,34.71,55.27,128.556,128.556,0,0,0,52.87,34.06q30.735,10.515,76.92,10.52,47.82,0,78.83-16.35a138.865,138.865,0,0,0,50.96-45.88q19.95-29.52,28.69-69.9l-105.63-14.93Q1655.515,1324.9,1640.63,1338.64Zm218.45,61.04q43.215,43.41,113.23,43.4,78.5,0,122.95-52.25,44.43-52.26,44.44-134.07,0-72.78-35.83-122.54-44.58-61.77-131.83-61.77-76.3,0-121.17,52.59-44.85,52.59-44.85,133.73,0,87.15,53.06,140.91h0Zm74.39-210.7q15.84-22.845,40.16-22.85,22.95,0,38.52,22.52t15.58,68.55q0,49.38-15.44,71.72t-39.48,22.35q-23.775,0-39.48-22.69t-15.71-70.05Q1917.62,1211.835,1933.47,1188.98Zm250.6,246.27h119.06V1299.01H2184.07v136.24Z"/>
</svg>
